<svg width="25" height="24" viewBox="0 0 25 24" fill="none" xmlns="http://www.w3.org/2000/svg">
<g id="mingcute:down-line">
<g id="Group">
<path id="Vector" fill-rule="evenodd" clip-rule="evenodd" d="M11.0893 13.0892C10.933 13.2454 10.7211 13.3332 10.5001 13.3332C10.2792 13.3332 10.0672 13.2454 9.91096 13.0892L5.19679 8.375C5.1172 8.29813 5.05371 8.20617 5.01004 8.1045C4.96636 8.00283 4.94338 7.89348 4.94241 7.78284C4.94145 7.67219 4.96254 7.56245 5.00444 7.46004C5.04634 7.35763 5.10822 7.26458 5.18646 7.18634C5.2647 7.10809 5.35775 7.04622 5.46016 7.00432C5.56257 6.96242 5.67231 6.94133 5.78296 6.94229C5.89361 6.94325 6.00296 6.96624 6.10463 7.00992C6.2063 7.05359 6.29825 7.11708 6.37512 7.19667L10.5001 11.3217L14.6251 7.19667C14.7823 7.04487 14.9928 6.96087 15.2113 6.96277C15.4298 6.96467 15.6388 7.05231 15.7933 7.20682C15.9478 7.36133 16.0355 7.57034 16.0374 7.78883C16.0393 8.00733 15.9553 8.21783 15.8035 8.375L11.0893 13.0892Z" fill="black"/>
</g>
</g>
</svg>
