<svg width="18" height="17" viewBox="0 0 18 17" fill="none" xmlns="http://www.w3.org/2000/svg">
<g id="akar-icons:location">
<g id="Group">
<path id="Vector" d="M9 9.20834C10.1736 9.20834 11.125 8.25695 11.125 7.08334C11.125 5.90974 10.1736 4.95834 9 4.95834C7.82639 4.95834 6.875 5.90974 6.875 7.08334C6.875 8.25695 7.82639 9.20834 9 9.20834Z" stroke="black" stroke-linecap="round" stroke-linejoin="round"/>
<path id="Vector_2" d="M8.99992 1.41667C7.49703 1.41667 6.05569 2.01369 4.99298 3.0764C3.93027 4.13911 3.33325 5.58045 3.33325 7.08334C3.33325 8.42351 3.618 9.30042 4.39575 10.2708L8.99992 15.5833L13.6041 10.2708C14.3818 9.30042 14.6666 8.42351 14.6666 7.08334C14.6666 5.58045 14.0696 4.13911 13.0069 3.0764C11.9442 2.01369 10.5028 1.41667 8.99992 1.41667Z" stroke="black" stroke-linecap="round" stroke-linejoin="round"/>
</g>
</g>
</svg>
