<svg width="24" height="25" viewBox="0 0 24 25" fill="none" xmlns="http://www.w3.org/2000/svg">
<g id="mdi:location">
<path id="Vector" d="M12 11.657C11.337 11.657 10.7011 11.3936 10.2322 10.9247C9.76339 10.4559 9.5 9.82002 9.5 9.15698C9.5 8.49394 9.76339 7.85806 10.2322 7.38922C10.7011 6.92037 11.337 6.65698 12 6.65698C12.663 6.65698 13.2989 6.92037 13.7678 7.38922C14.2366 7.85806 14.5 8.49394 14.5 9.15698C14.5 9.48529 14.4353 9.81038 14.3097 10.1137C14.1841 10.417 13.9999 10.6926 13.7678 10.9247C13.5356 11.1569 13.26 11.341 12.9567 11.4667C12.6534 11.5923 12.3283 11.657 12 11.657ZM12 2.15698C10.1435 2.15698 8.36301 2.89448 7.05025 4.20723C5.7375 5.51999 5 7.30047 5 9.15698C5 14.407 12 22.157 12 22.157C12 22.157 19 14.407 19 9.15698C19 7.30047 18.2625 5.51999 16.9497 4.20723C15.637 2.89448 13.8565 2.15698 12 2.15698Z" fill="#EB0000"/>
</g>
</svg>
