<svg width="17" height="16" viewBox="0 0 17 16" fill="none" xmlns="http://www.w3.org/2000/svg">
<g id="tag icons">
<path id="Vector" d="M13.8333 8.00001H15.1666V9.33334H13.8333C12.9133 9.33334 12.0066 9.10001 11.1666 8.66668C9.49992 9.53334 7.49992 9.53334 5.83325 8.66668C4.99325 9.10001 4.07992 9.33334 3.16659 9.33334H1.83325V8.00001H3.16659C4.09325 8.00001 5.01992 7.68668 5.83325 7.11334C7.45992 8.25334 9.53992 8.25334 11.1666 7.11334C11.9799 7.68668 12.9066 8.00001 13.8333 8.00001ZM13.8333 4.00001H15.1666V5.33334H13.8333C12.9133 5.33334 12.0066 5.10001 11.1666 4.66668C9.49992 5.53334 7.49992 5.53334 5.83325 4.66668C4.99325 5.10001 4.07992 5.33334 3.16659 5.33334H1.83325V4.00001H3.16659C4.09325 4.00001 5.01992 3.68668 5.83325 3.11334C7.45992 4.25334 9.53992 4.25334 11.1666 3.11334C11.9799 3.68668 12.9066 4.00001 13.8333 4.00001ZM13.8333 12H15.1666V13.3333H13.8333C12.9133 13.3333 12.0066 13.1 11.1666 12.6667C9.49992 13.5333 7.49992 13.5333 5.83325 12.6667C4.99325 13.1 4.07992 13.3333 3.16659 13.3333H1.83325V12H3.16659C4.09325 12 5.01992 11.6867 5.83325 11.1133C7.45992 12.2533 9.53992 12.2533 11.1666 11.1133C11.9799 11.6867 12.9066 12 13.8333 12Z" fill="#333333"/>
</g>
</svg>
