<svg width="17" height="16" viewBox="0 0 17 16" fill="none" xmlns="http://www.w3.org/2000/svg">
<g id="tag icons">
<path id="Vector" d="M6.1095 2.1875C5.695 2.699 5.504 3.1365 5.5 3.5625C5.496 3.9885 5.6855 4.3185 5.8125 4.5315C5.9395 4.7445 5.996 4.8515 6 4.9685C6.004 5.086 5.965 5.291 5.656 5.6875L6.4375 6.3125C6.828 5.8085 7.0135 5.3555 7 4.9375C6.9865 4.5195 6.795 4.2205 6.672 4.0155C6.549 3.8105 6.498 3.701 6.5 3.578C6.502 3.455 6.555 3.2265 6.8905 2.8125L6.1095 2.1875ZM8.6095 2.1875C8.195 2.699 8.004 3.1365 8 3.5625C7.996 3.9885 8.1855 4.3185 8.3125 4.5315C8.4395 4.7445 8.496 4.8515 8.5 4.9685C8.504 5.086 8.465 5.291 8.156 5.6875L8.9375 6.3125C9.328 5.8085 9.5135 5.3555 9.5 4.9375C9.4865 4.5195 9.295 4.2205 9.172 4.0155C9.049 3.8105 8.998 3.701 9 3.578C9.002 3.455 9.055 3.2265 9.3905 2.8125L8.6095 2.1875ZM11.1095 2.1875C10.695 2.699 10.504 3.1365 10.5 3.5625C10.496 3.9885 10.6855 4.3185 10.8125 4.5315C10.9395 4.7445 10.996 4.8515 11 4.9685C11.004 5.086 10.965 5.291 10.656 5.6875L11.4375 6.3125C11.828 5.8085 12.0135 5.3555 12 4.9375C11.9865 4.5195 11.795 4.2205 11.672 4.0155C11.549 3.8105 11.498 3.701 11.5 3.578C11.502 3.455 11.555 3.2265 11.8905 2.8125L11.1095 2.1875ZM2 7V8H2.594L3.359 11.797V11.8125C3.41698 12.0675 3.53935 12.3033 3.71441 12.4976C3.88947 12.6918 4.1114 12.8379 4.359 12.922L4 14H5L5.328 13H11.672L12 14H13L12.6405 12.922C13.164 12.762 13.5705 12.342 13.6875 11.8125V11.797L14.4065 8H15V7H2ZM3.6095 8H13.406L12.703 11.6095C12.6445 11.826 12.461 12 12.203 12H4.844C4.576 12 4.3945 11.8225 4.344 11.5935L3.6095 8Z" fill="#333333"/>
</g>
</svg>
