<svg width="13" height="15" viewBox="0 0 13 15" fill="none" xmlns="http://www.w3.org/2000/svg">
<g id="Group">
<path id="Vector" fill-rule="evenodd" clip-rule="evenodd" d="M8.49999 1.66667C8.32318 1.66667 8.15361 1.73691 8.02858 1.86193C7.90356 1.98696 7.83332 2.15652 7.83332 2.33334C7.83332 2.51015 7.90356 2.67972 8.02858 2.80474C8.15361 2.92976 8.32318 3 8.49999 3C8.6768 3 8.84637 2.92976 8.97139 2.80474C9.09641 2.67972 9.16665 2.51015 9.16665 2.33334C9.16665 2.15652 9.09641 1.98696 8.97139 1.86193C8.84637 1.73691 8.6768 1.66667 8.49999 1.66667ZM6.49999 2.33334C6.49999 1.9422 6.61469 1.55966 6.82988 1.23304C7.04506 0.906427 7.3513 0.650076 7.71068 0.495715C8.07006 0.341353 8.46682 0.295758 8.85185 0.364571C9.23688 0.433383 9.59328 0.613584 9.87695 0.882871C10.1606 1.15216 10.3591 1.49871 10.4478 1.87965C10.5366 2.26058 10.5117 2.65917 10.3762 3.02609C10.2407 3.39301 10.0006 3.71216 9.68564 3.94403C9.37065 4.17591 8.99459 4.31033 8.60399 4.33067L7.05732 7.86667C7.03521 7.91733 7.02604 7.9727 7.03065 8.02778C7.03526 8.08287 7.05349 8.13594 7.08371 8.18223C7.11393 8.22851 7.15518 8.26656 7.20376 8.29294C7.25233 8.31931 7.30671 8.3332 7.36199 8.33334H8.89999C9.31062 8.33326 9.71131 8.45958 10.0477 8.69514C10.384 8.93071 10.6397 9.26409 10.78 9.65L11.7033 12.1893L12.132 12.404C12.213 12.4414 12.2857 12.4948 12.3458 12.5609C12.4058 12.6269 12.452 12.7044 12.4815 12.7886C12.5111 12.8729 12.5234 12.9622 12.5177 13.0513C12.5121 13.1404 12.4886 13.2275 12.4487 13.3074C12.4088 13.3872 12.3532 13.4582 12.2853 13.5162C12.2174 13.5742 12.1386 13.6179 12.0534 13.6449C11.9683 13.6718 11.8786 13.6813 11.7898 13.6729C11.7009 13.6645 11.6146 13.6384 11.536 13.596L10.8693 13.2627C10.7167 13.1865 10.5991 13.0549 10.5407 12.8947L9.52665 10.1053C9.47985 9.97674 9.39461 9.86566 9.2825 9.78718C9.17038 9.7087 9.03684 9.66663 8.89999 9.66667H7.36265C6.16132 9.66667 5.35465 8.43334 5.83599 7.332L6.52465 5.75734L5.16665 5.07867L2.79799 6.26267C2.7194 6.30505 2.63311 6.33121 2.54422 6.3396C2.45533 6.34799 2.36567 6.33844 2.28054 6.31152C2.19541 6.2846 2.11656 6.24085 2.04866 6.18288C1.98076 6.1249 1.9252 6.05388 1.88527 5.97403C1.84535 5.89417 1.82187 5.80711 1.81622 5.718C1.81058 5.6289 1.8229 5.53957 1.85244 5.45532C1.88198 5.37106 1.92814 5.2936 1.98818 5.22753C2.04823 5.16145 2.12093 5.10811 2.20199 5.07067L4.57065 3.886C4.75572 3.79352 4.95977 3.74538 5.16665 3.74538C5.37354 3.74538 5.57759 3.79352 5.76265 3.886L7.05932 4.53467L7.31665 3.946C7.06347 3.76019 6.85761 3.51737 6.71573 3.2372C6.57385 2.95703 6.49994 2.64738 6.49999 2.33334ZM2.37865 7.60867C2.14295 7.94564 1.97905 8.32747 1.89712 8.73045C1.81519 9.13343 1.81698 9.54895 1.90238 9.95121C1.98779 10.3535 2.15498 10.7339 2.39357 11.0688C2.63217 11.4037 2.93708 11.686 3.28936 11.8982C3.64164 12.1103 4.03377 12.2478 4.44141 12.302C4.84904 12.3562 5.26347 12.326 5.65896 12.2134C6.05444 12.1007 6.42254 11.9079 6.74039 11.647C7.05825 11.3861 7.31907 11.0626 7.50665 10.6967L8.69332 11.3033C8.42242 11.8322 8.04564 12.2997 7.58639 12.6768C7.12715 13.0539 6.59526 13.3325 6.02378 13.4953C5.45229 13.6581 4.85343 13.7016 4.26441 13.6232C3.6754 13.5447 3.1088 13.346 2.59986 13.0393C2.09091 12.7326 1.65048 12.3245 1.30594 11.8403C0.961399 11.3562 0.720113 10.8064 0.597078 10.225C0.474043 9.64368 0.471887 9.04324 0.590745 8.46103C0.709602 7.87882 0.946933 7.32727 1.28799 6.84067L2.37865 7.60867Z" fill="#333333"/>
</g>
</svg>
