<svg width="17" height="16" viewBox="0 0 17 16" fill="none" xmlns="http://www.w3.org/2000/svg">
<g id="tag icons">
<path id="Vector" d="M1.16675 6.00003L2.50008 7.33336C5.81341 4.02003 11.1867 4.02003 14.5001 7.33336L15.8334 6.00003C11.7867 1.95336 5.22008 1.95336 1.16675 6.00003ZM6.50008 11.3334L8.50008 13.3334L10.5001 11.3334C10.2377 11.0703 9.92597 10.8615 9.58277 10.7191C9.23958 10.5767 8.87165 10.5034 8.50008 10.5034C8.12851 10.5034 7.76058 10.5767 7.41739 10.7191C7.0742 10.8615 6.76247 11.0703 6.50008 11.3334ZM3.83341 8.66669L5.16675 10C6.05106 9.11645 7.25 8.62012 8.50008 8.62012C9.75016 8.62012 10.9491 9.11645 11.8334 10L13.1667 8.66669C10.5934 6.09336 6.41341 6.09336 3.83341 8.66669Z" fill="#333333"/>
</g>
</svg>
