<svg xmlns="http://www.w3.org/2000/svg" width="24" height="25" viewBox="0 0 24 25" fill="none">
  <path d="M20.145 8.77003L21.708 7.20703L20.294 5.79303L18.586 7.50003C17.536 6.87003 16.312 6.50003 15 6.50003C11.141 6.50003 8 9.64003 8 13.5C8 17.36 11.141 20.5 15 20.5C18.859 20.5 22 17.36 22 13.5C21.9988 11.7461 21.3364 10.0571 20.145 8.77003ZM15 18.5C12.243 18.5 10 16.257 10 13.5C10 10.743 12.243 8.50003 15 8.50003C17.757 8.50003 20 10.743 20 13.5C20 16.257 17.757 18.5 15 18.5Z" fill="#333333"/>
  <path d="M14 10.5H16V14.5H14V10.5ZM13 3.5H17V5.5H13V3.5ZM3 8.5H7V10.5H3V8.5ZM3 16.5H7V18.5H3V16.5ZM2 12.5H5.99V14.5H2V12.5Z" fill="#333333"/>
</svg>