<svg xmlns="http://www.w3.org/2000/svg" width="24" height="25" viewBox="0 0 24 25" fill="none">
  <path d="M14.25 8.375C14.9175 8.375 15.57 8.17706 16.125 7.80621C16.6801 7.43536 17.1126 6.90826 17.3681 6.29156C17.6235 5.67486 17.6904 4.99626 17.5602 4.34157C17.4299 3.68689 17.1085 3.08552 16.6365 2.61352C16.1645 2.14151 15.5631 1.82008 14.9084 1.68985C14.2537 1.55963 13.5751 1.62646 12.9584 1.88191C12.3417 2.13735 11.8146 2.56994 11.4438 3.12495C11.0729 3.67997 10.875 4.33249 10.875 5C10.875 5.89511 11.2306 6.75355 11.8635 7.38649C12.4965 8.01942 13.3549 8.375 14.25 8.375ZM14.25 3.875C14.4725 3.875 14.69 3.94098 14.875 4.0646C15.06 4.18821 15.2042 4.36392 15.2894 4.56948C15.3745 4.77505 15.3968 5.00125 15.3534 5.21948C15.31 5.43771 15.2028 5.63816 15.0455 5.7955C14.8882 5.95283 14.6877 6.05998 14.4695 6.10338C14.2512 6.14679 14.025 6.12451 13.8195 6.03937C13.6139 5.95422 13.4382 5.81002 13.3146 5.62502C13.191 5.44001 13.125 5.22251 13.125 5C13.125 4.70163 13.2435 4.41548 13.4545 4.20451C13.6655 3.99353 13.9516 3.875 14.25 3.875ZM19.125 14V22.25C19.125 22.5484 19.0065 22.8345 18.7955 23.0455C18.5845 23.2565 18.2984 23.375 18 23.375C17.7016 23.375 17.4155 23.2565 17.2045 23.0455C16.9935 22.8345 16.875 22.5484 16.875 22.25V15.0538C14.5388 14.7378 13.6931 13.4328 12.9956 12.3575C12.8503 12.1334 12.7097 11.9159 12.5578 11.7125L11.6634 13.775L14.9063 16.0841C15.0516 16.1885 15.1699 16.326 15.2515 16.4853C15.333 16.6446 15.3753 16.8211 15.375 17V22.25C15.375 22.5484 15.2565 22.8345 15.0455 23.0455C14.8345 23.2565 14.5484 23.375 14.25 23.375C13.9516 23.375 13.6655 23.2565 13.4545 23.0455C13.2435 22.8345 13.125 22.5484 13.125 22.25V17.5784L10.7466 15.8797L7.78125 22.6981C7.72503 22.8375 7.64145 22.9642 7.53546 23.0707C7.42946 23.1772 7.3032 23.2615 7.16412 23.3184C7.02504 23.3753 6.87596 23.4038 6.72569 23.4022C6.57542 23.4005 6.427 23.3688 6.2892 23.3088C6.15139 23.2489 6.027 23.162 5.92335 23.0531C5.8197 22.9443 5.7389 22.8158 5.68573 22.6753C5.63256 22.5347 5.60808 22.3849 5.61376 22.2348C5.61943 22.0846 5.65513 21.9371 5.71875 21.8009L11.1113 9.39688C11.1725 9.25581 11.262 9.1288 11.3743 9.02369C11.4866 8.91858 11.6192 8.83761 11.764 8.78577C11.9088 8.73393 12.0627 8.71233 12.2161 8.72231C12.3696 8.73228 12.5194 8.77361 12.6563 8.84375C12.9536 8.99806 13.2318 9.18686 13.485 9.40625C14.1206 9.95844 14.5247 10.5809 14.8809 11.1303C15.5878 12.2188 16.0125 12.875 18 12.875C18.2984 12.875 18.5845 12.9935 18.7955 13.2045C19.0065 13.4155 19.125 13.7016 19.125 14ZM6.05625 14.9263L3.68156 13.9063C3.4085 13.7881 3.19334 13.5666 3.08318 13.2903C2.97302 13.0139 2.97682 12.7051 3.09375 12.4316L5.34375 7.18156C5.46187 6.9085 5.68336 6.69334 5.95973 6.58318C6.2361 6.47302 6.54486 6.47682 6.81844 6.59375L9.21938 7.625C9.36491 7.67603 9.4984 7.75644 9.61156 7.86123C9.72471 7.96602 9.81511 8.09295 9.87714 8.23415C9.93917 8.37535 9.9715 8.5278 9.97214 8.68202C9.97277 8.83624 9.94169 8.98894 9.88082 9.13065C9.81995 9.27235 9.7306 9.40002 9.61831 9.50574C9.50602 9.61146 9.37319 9.69296 9.22808 9.74518C9.08297 9.7974 8.92867 9.81923 8.77477 9.80931C8.62086 9.79938 8.47064 9.75792 8.33344 9.6875L6.96563 9.1025L5.6025 12.2844L6.94219 12.8581C7.07939 12.9153 7.2039 12.9992 7.30851 13.1048C7.41312 13.2104 7.49576 13.3357 7.55166 13.4734C7.60755 13.6112 7.6356 13.7586 7.63417 13.9073C7.63274 14.0559 7.60187 14.2028 7.54333 14.3395C7.4848 14.4761 7.39976 14.5998 7.29314 14.7034C7.18652 14.807 7.06043 14.8884 6.92215 14.943C6.78388 14.9975 6.63616 15.0241 6.48753 15.0213C6.33891 15.0184 6.19232 14.9861 6.05625 14.9263Z" fill="#333333"/>
</svg>