<svg width="20" height="20" viewBox="0 0 20 20" fill="none" xmlns="http://www.w3.org/2000/svg">
<path id="Vector" d="M2.75 0.375C2.18641 0.375 1.64591 0.598883 1.2474 0.997398C0.848883 1.39591 0.625 1.93641 0.625 2.5C0.625 3.06359 0.848883 3.60409 1.2474 4.0026C1.64591 4.40112 2.18641 4.625 2.75 4.625C3.31359 4.625 3.85409 4.40112 4.2526 4.0026C4.65112 3.60409 4.875 3.06359 4.875 2.5C4.875 1.93641 4.65112 1.39591 4.2526 0.997398C3.85409 0.598883 3.31359 0.375 2.75 0.375ZM0.75 6.375C0.716848 6.375 0.685054 6.38817 0.661612 6.41161C0.63817 6.43505 0.625 6.46685 0.625 6.5V19.5C0.625 19.569 0.681 19.625 0.75 19.625H4.75C4.78315 19.625 4.81495 19.6118 4.83839 19.5884C4.86183 19.5649 4.875 19.5332 4.875 19.5V6.5C4.875 6.46685 4.86183 6.43505 4.83839 6.41161C4.81495 6.38817 4.78315 6.375 4.75 6.375H0.75ZM7.25 6.375C7.21685 6.375 7.18505 6.38817 7.16161 6.41161C7.13817 6.43505 7.125 6.46685 7.125 6.5V19.5C7.125 19.569 7.181 19.625 7.25 19.625H11.25C11.2832 19.625 11.3149 19.6118 11.3384 19.5884C11.3618 19.5649 11.375 19.5332 11.375 19.5V12.5C11.375 12.0027 11.5725 11.5258 11.9242 11.1742C12.2758 10.8225 12.7527 10.625 13.25 10.625C13.7473 10.625 14.2242 10.8225 14.5758 11.1742C14.9275 11.5258 15.125 12.0027 15.125 12.5V19.5C15.125 19.569 15.181 19.625 15.25 19.625H19.25C19.2832 19.625 19.3149 19.6118 19.3384 19.5884C19.3618 19.5649 19.375 19.5332 19.375 19.5V10.88C19.375 8.453 17.265 6.555 14.85 6.774C14.1029 6.84254 13.371 7.02744 12.681 7.322L11.375 7.882V6.5C11.375 6.46685 11.3618 6.43505 11.3384 6.41161C11.3149 6.38817 11.2832 6.375 11.25 6.375H7.25Z" fill="white"/>
</svg>
