<svg width="48" height="48" viewBox="0 0 48 48" fill="none" xmlns="http://www.w3.org/2000/svg">
<g id="mdi:explore-nearby">
<g id="Vector">
<path d="M24 40C19.7565 40 15.6869 38.3143 12.6863 35.3137C9.68571 32.3131 8 28.2435 8 24C8 19.7565 9.68571 15.6869 12.6863 12.6863C15.6869 9.68571 19.7565 8 24 8C28.2435 8 32.3131 9.68571 35.3137 12.6863C38.3143 15.6869 40 19.7565 40 24C40 28.2435 38.3143 32.3131 35.3137 35.3137C32.3131 38.3143 28.2435 40 24 40ZM24 4C21.3736 4 18.7728 4.51732 16.3463 5.52241C13.9198 6.5275 11.715 8.00069 9.85786 9.85786C6.10714 13.6086 4 18.6957 4 24C4 29.3043 6.10714 34.3914 9.85786 38.1421C11.715 39.9993 13.9198 41.4725 16.3463 42.4776C18.7728 43.4827 21.3736 44 24 44C29.3043 44 34.3914 41.8929 38.1421 38.1421C41.8929 34.3914 44 29.3043 44 24C44 21.3736 43.4827 18.7728 42.4776 16.3463C41.4725 13.9198 39.9993 11.715 38.1421 9.85786C36.285 8.00069 34.0802 6.5275 31.6537 5.52241C29.2272 4.51732 26.6264 4 24 4ZM24 25C23.2044 25 22.4413 24.6839 21.8787 24.1213C21.3161 23.5587 21 22.7956 21 22C21 21.2044 21.3161 20.4413 21.8787 19.8787C22.4413 19.3161 23.2044 19 24 19C24.7956 19 25.5587 19.3161 26.1213 19.8787C26.6839 20.4413 27 21.2044 27 22C27 22.7956 26.6839 23.5587 26.1213 24.1213C25.5587 24.6839 24.7956 25 24 25ZM24 14.4C19.8 14.4 16.4 17.8 16.4 22C16.4 28 24 35 24 35C24 35 31.6 28 31.6 22C31.6 17.8 28.2 14.4 24 14.4Z" fill="#FFB509"/>
<path d="M24 40C19.7565 40 15.6869 38.3143 12.6863 35.3137C9.68571 32.3131 8 28.2435 8 24C8 19.7565 9.68571 15.6869 12.6863 12.6863C15.6869 9.68571 19.7565 8 24 8C28.2435 8 32.3131 9.68571 35.3137 12.6863C38.3143 15.6869 40 19.7565 40 24C40 28.2435 38.3143 32.3131 35.3137 35.3137C32.3131 38.3143 28.2435 40 24 40ZM24 4C21.3736 4 18.7728 4.51732 16.3463 5.52241C13.9198 6.5275 11.715 8.00069 9.85786 9.85786C6.10714 13.6086 4 18.6957 4 24C4 29.3043 6.10714 34.3914 9.85786 38.1421C11.715 39.9993 13.9198 41.4725 16.3463 42.4776C18.7728 43.4827 21.3736 44 24 44C29.3043 44 34.3914 41.8929 38.1421 38.1421C41.8929 34.3914 44 29.3043 44 24C44 21.3736 43.4827 18.7728 42.4776 16.3463C41.4725 13.9198 39.9993 11.715 38.1421 9.85786C36.285 8.00069 34.0802 6.5275 31.6537 5.52241C29.2272 4.51732 26.6264 4 24 4ZM24 25C23.2044 25 22.4413 24.6839 21.8787 24.1213C21.3161 23.5587 21 22.7956 21 22C21 21.2044 21.3161 20.4413 21.8787 19.8787C22.4413 19.3161 23.2044 19 24 19C24.7956 19 25.5587 19.3161 26.1213 19.8787C26.6839 20.4413 27 21.2044 27 22C27 22.7956 26.6839 23.5587 26.1213 24.1213C25.5587 24.6839 24.7956 25 24 25ZM24 14.4C19.8 14.4 16.4 17.8 16.4 22C16.4 28 24 35 24 35C24 35 31.6 28 31.6 22C31.6 17.8 28.2 14.4 24 14.4Z" fill="white" fill-opacity="0.2"/>
</g>
</g>
</svg>
