<svg width="24" height="24" viewBox="0 0 24 24" fill="none" xmlns="http://www.w3.org/2000/svg">
<g id="lineicons:scroll-down-2">
<path id="Vector" d="M11.4699 16.278C11.6106 16.4185 11.8012 16.4974 11.9999 16.4974C12.1987 16.4974 12.3893 16.4185 12.5299 16.278L14.7799 14.029C14.9124 13.8868 14.9845 13.6988 14.9811 13.5045C14.9777 13.3102 14.899 13.1248 14.7616 12.9874C14.6241 12.85 14.4388 12.7713 14.2445 12.7678C14.0502 12.7644 13.8621 12.8365 13.7199 12.969L11.9999 14.686L10.2799 12.967C10.2107 12.8954 10.1279 12.8383 10.0364 12.7991C9.94489 12.7598 9.84647 12.7392 9.74688 12.7383C9.6473 12.7375 9.54855 12.7565 9.4564 12.7943C9.36424 12.832 9.28053 12.8878 9.21014 12.9582C9.13976 13.0287 9.08411 13.1124 9.04644 13.2046C9.00877 13.2968 8.98984 13.3956 8.99075 13.4952C8.99167 13.5948 9.0124 13.6932 9.05175 13.7846C9.0911 13.8761 9.14828 13.9589 9.21994 14.028L11.4699 16.278ZM11.9999 9.05502C11.7878 9.05502 11.5843 8.97073 11.4343 8.8207C11.2842 8.67067 11.1999 8.46719 11.1999 8.25502C11.1999 8.04284 11.2842 7.83936 11.4343 7.68933C11.5843 7.5393 11.7878 7.45502 11.9999 7.45502C12.2121 7.45502 12.4156 7.5393 12.5656 7.68933C12.7157 7.83936 12.7999 8.04284 12.7999 8.25502C12.7999 8.46719 12.7157 8.67067 12.5656 8.8207C12.4156 8.97073 12.2121 9.05502 11.9999 9.05502ZM11.1999 11.071C11.1999 11.1761 11.2206 11.2801 11.2608 11.3772C11.301 11.4742 11.36 11.5624 11.4343 11.6367C11.5085 11.711 11.5967 11.7699 11.6938 11.8101C11.7909 11.8503 11.8949 11.871 11.9999 11.871C12.105 11.871 12.209 11.8503 12.3061 11.8101C12.4031 11.7699 12.4913 11.711 12.5656 11.6367C12.6399 11.5624 12.6988 11.4742 12.739 11.3772C12.7792 11.2801 12.7999 11.1761 12.7999 11.071C12.7999 10.8588 12.7157 10.6554 12.5656 10.5053C12.4156 10.3553 12.2121 10.271 11.9999 10.271C11.7878 10.271 11.5843 10.3553 11.4343 10.5053C11.2842 10.6554 11.1999 10.8588 11.1999 11.071Z" fill="white"/>
<path id="Vector_2" fill-rule="evenodd" clip-rule="evenodd" d="M12 2.00098C10.0109 2.00098 8.10322 2.79115 6.6967 4.19768C5.29018 5.6042 4.5 7.51185 4.5 9.50098V14.501C4.5 16.4901 5.29018 18.3978 6.6967 19.8043C8.10322 21.2108 10.0109 22.001 12 22.001C13.9891 22.001 15.8968 21.2108 17.3033 19.8043C18.7098 18.3978 19.5 16.4901 19.5 14.501V9.50098C19.5 7.51185 18.7098 5.6042 17.3033 4.19768C15.8968 2.79115 13.9891 2.00098 12 2.00098ZM6 9.50098C6 7.90968 6.63214 6.38355 7.75736 5.25834C8.88258 4.13312 10.4087 3.50098 12 3.50098C13.5913 3.50098 15.1174 4.13312 16.2426 5.25834C17.3679 6.38355 18 7.90968 18 9.50098V14.501C18 16.0923 17.3679 17.6184 16.2426 18.7436C15.1174 19.8688 13.5913 20.501 12 20.501C10.4087 20.501 8.88258 19.8688 7.75736 18.7436C6.63214 17.6184 6 16.0923 6 14.501V9.50098Z" fill="white"/>
</g>
</svg>
