<svg xmlns="http://www.w3.org/2000/svg" width="20" height="17" viewBox="0 0 20 17" fill="none">
  <path d="M2 4H14C14.2652 4 14.5196 4.10536 14.7071 4.29289C14.8946 4.48043 15 4.73478 15 5V9.5C15 10.163 14.7366 10.7989 14.2678 11.2678C13.7989 11.7366 13.163 12 12.5 12H12C11.4696 12 10.9609 11.7893 10.5858 11.4142C10.2107 11.0391 10 10.5304 10 10C10 9.46957 9.78929 8.96086 9.41421 8.58579C9.03914 8.21071 8.53043 8 8 8C7.46957 8 6.96086 8.21071 6.58579 8.58579C6.21071 8.96086 6 9.46957 6 10C6 10.5304 5.78929 11.0391 5.41421 11.4142C5.03914 11.7893 4.53043 12 4 12H3.5C2.83696 12 2.20107 11.7366 1.73223 11.2678C1.26339 10.7989 1 10.163 1 9.5V5C1 4.73478 1.10536 4.48043 1.29289 4.29289C1.48043 4.10536 1.73478 4 2 4Z" stroke="#333333" stroke-width="2" stroke-linecap="round" stroke-linejoin="round"/>
  <path d="M8 14C8 14.5304 8.21071 15.0391 8.58579 15.4142C8.96086 15.7893 9.46957 16 10 16H13.5C14.9587 16 16.3576 15.4205 17.3891 14.3891C18.4205 13.3576 19 11.9587 19 10.5V1" stroke="#333333" stroke-width="2" stroke-linecap="round" stroke-linejoin="round"/>
</svg>