<svg xmlns="http://www.w3.org/2000/svg" width="24" height="24" viewBox="0 0 24 24" fill="none">
<path d="M21 20.9926L16.657 16.6496M16.657 16.6496C17.3999 15.9067 17.9892 15.0248 18.3912 14.0541C18.7933 13.0835 19.0002 12.0432 19.0002 10.9926C19.0002 9.94197 18.7933 8.90166 18.3913 7.93103C17.9892 6.9604 17.3999 6.07846 16.657 5.33558C15.9141 4.59269 15.0322 4.0034 14.0616 3.60135C13.0909 3.1993 12.0506 2.99237 11 2.99237C9.94942 2.99237 8.90911 3.1993 7.93848 3.60135C6.96785 4.0034 6.08591 4.59269 5.34302 5.33558C3.84269 6.83591 2.99982 8.87079 2.99982 10.9926C2.99982 13.1144 3.84269 15.1492 5.34302 16.6496C6.84335 18.1499 8.87824 18.9928 11 18.9928C13.1218 18.9928 15.1567 18.1499 16.657 16.6496Z" stroke="#333333" stroke-width="2.5" stroke-linecap="round" stroke-linejoin="round"/>
</svg>