<svg xmlns="http://www.w3.org/2000/svg" width="24" height="25" viewBox="0 0 24 25" fill="none">
  <path d="M15 13.5V5.5C15 4.70435 14.6839 3.94129 14.1213 3.37868C13.5587 2.81607 12.7956 2.5 12 2.5C11.2044 2.5 10.4413 2.81607 9.87868 3.37868C9.31607 3.94129 9 4.70435 9 5.5V13.5C8.16047 14.1296 7.54033 15.0075 7.22743 16.0092C6.91453 17.0108 6.92473 18.0856 7.25658 19.0811C7.58844 20.0767 8.22512 20.9426 9.07645 21.5562C9.92778 22.1698 10.9506 22.5 12 22.5C13.0494 22.5 14.0722 22.1698 14.9236 21.5562C15.7749 20.9426 16.4116 20.0767 16.7434 19.0811C17.0753 18.0856 17.0855 17.0108 16.7726 16.0092C16.4597 15.0075 15.8395 14.1296 15 13.5ZM12 4.5C12.2652 4.5 12.5196 4.60536 12.7071 4.79289C12.8946 4.98043 13 5.23478 13 5.5V8.5H11V5.5C11 5.23478 11.1054 4.98043 11.2929 4.79289C11.4804 4.60536 11.7348 4.5 12 4.5Z" fill="#333333"/>
</svg>